{"accessors" : [{"bufferView" : 0, "byteOffset" : 0, "componentType" : 5123, "count" : 48702, "type" : "SCALAR", "max" : [48701], "min" : [0]}, {"bufferView" : 1, "byteOffset" : 0, "componentType" : 5126, "count" : 48702, "type" : "VEC3", "max" : [1.0761638879776, 1.0659149885177612, 1.0633912086486816], "min" : [-1.104200005531311, -1.0721380710601807, -0.9960969686508179], "name" : "POSITION"}, {"bufferView" : 1, "byteOffset" : 12, "componentType" : 5126, "count" : 48702, "type" : "VEC3", "max" : [0.9997682571411133, 0.999883770942688, 0.9999024271965027], "min" : [-0.9998005628585815, -0.9999963641166687, -0.9999566674232483], "name" : "NORMAL"}, {"bufferView" : 1, "byteOffset" : 24, "componentType" : 5126, "count" : 48702, "type" : "VEC2", "max" : [0.9819145798683167, -0.0020000000949949026], "min" : [0.0020000000949949026, -0.9979999661445618], "name" : "TEXCOORD_0"}], "asset" : {"generator" : "Aspose.3D 22.6", "version" : "2.0"}, "buffers" : [{"uri" : "data:application/octet-stream;base64,", "byteLength" : 1655876}], "bufferViews" : [{"buffer" : 0, "byteOffset" : 0, "byteLength" : 97404, "target" : 34963}, {"buffer" : 0, "byteOffset" : 97408, "byteLength" : 1558464, "byteStride" : 32, "target" : 34962}], "materials" : [{"name" : "1", "pbrMetallicRoughness" : {"baseColorFactor" : [0, 0.3333333432674408, 0.01568627543747425, 1], "metallicFactor" : 0, "roughnessFactor" : 0}, "emissiveFactor" : [0, 0, 0], "alphaMode" : "OPAQUE", "doubleSided" : false}], "meshes" : [{"primitives" : [{"attributes" : {"POSITION" : 1, "NORMAL" : 2, "TEXCOORD_0" : 3}, "indices" : 0, "material" : 0, "mode" : 4}], "name" : ""}], "nodes" : [{"matrix" : [1, 0, 0, 0, 0, 6.123233995736766E-17, -1, 0, 0, 1, 6.123233995736766E-17, 0, 0, 0, 0, 1], "mesh" : 0, "name" : "OldMoon_LP"}], "scene" : 0, "scenes" : [{"nodes" : [0]}]}